<svg width="51" height="47" viewBox="0 0 51 47" fill="none" xmlns="http://www.w3.org/2000/svg">
<rect width="50.3571" height="47" rx="5" fill="#921616"/>
<path fill-rule="evenodd" clip-rule="evenodd" d="M31.3504 31.0272L37.7979 38.5186C38.0329 38.7916 38.0329 39.2329 37.7979 39.5058L37.3031 40.0808C37.0682 40.3537 36.6884 40.3537 36.4535 40.0808L30.006 32.5894C29.896 32.4558 29.831 32.2816 29.831 32.0958V31.5034C27.9768 33.4895 25.5027 34.709 22.7788 34.709C17.036 34.709 12.3828 29.3025 12.3828 22.6299C12.3828 15.9574 17.036 10.5508 22.7788 10.5508C28.5215 10.5508 33.1747 15.9574 33.1747 22.6299C33.1747 25.7949 32.1251 28.6695 30.4108 30.824H30.9256C31.0856 30.824 31.2355 30.8937 31.3504 31.0272ZM13.9821 22.6299C13.9821 28.2803 17.9156 32.8507 22.7787 32.8507C27.6419 32.8507 31.5753 28.2803 31.5753 22.6299C31.5753 16.9794 27.6419 12.4091 22.7787 12.4091C17.9156 12.4091 13.9821 16.9794 13.9821 22.6299Z" fill="black"/>
</svg>
