<svg width="185" height="49" viewBox="0 0 185 49" fill="none" xmlns="http://www.w3.org/2000/svg">
<path d="M148.19 30.724L6.64178e-05 23.4191L14.2919 20.4372C58.3794 19.5147 146.744 17.5145 147.503 16.8941C148.452 16.1186 146.176 3.85555 144.681 2.13263C143.186 0.4097 144.728 0.48785 145.813 0.33696C146.681 0.216251 149.844 12.4145 151.317 18.5287L174.743 20.1279C174.938 18.5394 177.449 21.1885 179.902 23.3921C182.219 20.9718 184.336 19.0774 184.69 23.3087C185.045 27.5663 182.506 25.7299 179.902 23.3921C177.691 25.7027 175.298 28.4925 174.087 26.8892L151.812 28.2309C151.614 33.3683 150.795 44.4038 149.103 47.4476C147.41 50.4914 147.081 47.9628 147.127 46.318C148.82 43.2742 148.541 34.6537 148.19 30.724Z" fill="black"/>
</svg>
